# AST/ASF file generated using VICON BodyLanguage
# -----------------------------------------------
:version 1.10
:name VICON
:units
  mass 1.0
  length 0.45
  angle deg
:documentation
   .ast/.asf automatically generated from VICON data using
   VICON BodyBuilder and BodyLanguage model FoxedUp or BRILLIANT.MOD
:root
   order TX TY TZ RX RY RZ
   axis XYZ
   position 0 0 0  
   orientation 0 0 0 
:bonedata
  begin
     id 1 
     name lhipjoint
     direction 0.57768 -0.667037 0.470475 
     length 2.36008 
     axis 0 0 0  XYZ
  end
  begin
     id 2 
     name lfemur
     direction 0.34202 -0.939693 0  
     length 6.97235  
     axis 0 0 20  XYZ
    dof rx ry rz
    limits (-160.0 20.0)
           (-70.0 70.0)
           (-60.0 70.0)
  end
  begin
     id 3 
     name ltibia
     direction 0.34202 -0.939693 0   
     length 6.93428   
     axis 0 0 20   XYZ
    dof rx
    limits (-10.0 170.0)
  end
  begin
     id 4 
     name lfoot
     direction 0.133018 -0.365463 0.921272   
     length 2.18603   
     axis -90 7.62852e-016 20   XYZ
    dof rx rz
    limits (-45.0 90.0)
           (-70.0 20.0)
  end
  begin
     id 5 
     name ltoes
     direction 1.53519e-011 -4.22055e-011 1   
     length 1.07924   
     axis -90 7.62852e-016 20   XYZ
    dof rx
    limits (-90.0 20.0)
  end
  begin
     id 6 
     name rhipjoint
     direction -0.577712 -0.667019 0.470462   
     length 2.36015  
     axis 0 0 0  XYZ 
  end
  begin
     id 7 
     name rfemur
     direction -0.34202 -0.939693 0   
     length 6.71195   
     axis 0 0 -20   XYZ
    dof rx ry rz
    limits (-160.0 20.0)
           (-70.0 70.0)
           (-70.0 60.0)
  end
  begin
     id 8 
     name rtibia
     direction -0.34202 -0.939693 0   
     length 7.04592   
     axis 0 0 -20   XYZ
    dof rx
    limits (-10.0 170.0)
 end
 begin
     id 9 
     name rfoot
     direction -0.113796 -0.312651 0.943027   
     length 2.03846  
     axis -90 -7.62852e-016 -20   XYZ
    dof rx rz
    limits (-45.0 90.0)
           (-20.0 70.0)
  end
  begin
     id 10 
     name rtoes
     direction -1.53586e-011 -4.218e-011 1   
     length 1.01562   
     axis -90 -7.62852e-016 -20   XYZ
    dof rx
    limits (-90.0 20.0)
  end
  begin
     id 11 
     name lowerback
     direction -0.0417299 0.991937 -0.119667   
     length 2.05257   
     axis 0 0 0   XYZ
    dof rx ry rz
    limits (-20.0 45.0)
           (-30.0 30.0)
           (-30.0 30.0)
  end
  begin
     id 12 
     name upperback
     direction -0.00017666 0.999999 0.00105178   
     length 2.05693   
     axis 0 0 0   XYZ
    dof rx ry rz
    limits (-20.0 45.0)
           (-30.0 30.0)
           (-30.0 30.0)
  end
  begin
     id 13 
     name thorax
     direction 0.0185169 0.998203 0.0569866   
     length 2.0932   
     axis 0 0 0   XYZ
    dof rx ry rz
    limits (-20.0 45.0)
           (-30.0 30.0)
           (-30.0 30.0)
  end
  begin
     id 14 
     name lowerneck
     direction -0.0212406 0.982645 0.184277   
     length 1.72509   
     axis 0 0 0   XYZ
    dof rx ry rz
    limits (-20.0 45.0)
           (-30.0 30.0)
           (-30.0 30.0)
  end
  begin
     id 15 
     name upperneck
     direction 0.00528579 0.965323 -0.261004   
     length 1.76294   
     axis 0 0 0   XYZ
    dof rx ry rz
    limits (-20.0 45.0)
           (-30.0 30.0)
           (-30.0 30.0)
  end
  begin
     id 16
     name head
     direction 0.00695421 0.994078 -0.108445  
     length 1.78678  
     axis 0 0 0   XYZ
    dof rx ry rz
    limits (-20.0 45.0)
           (-30.0 30.0)
           (-30.0 30.0)
  end
  begin
     id 17 
     name lclavicle
     direction 0.97277 0.211305 -0.095232  
     length 3.84823  
     axis 0 0 0   XYZ
    dof ry rz
    limits (-20.0 10.0)
           (0.0 20.0)
  end
  begin
     id 18 
     name lhumerus
     direction 1 -4.48957e-011 -1.98313e-027   
     length 4.97185   
     axis 180 -30 -90   XYZ
    dof rx ry rz
    limits (-60.0 90.0)
           (-90.0 90.0)
           (-90.0 90.0)
  end
  begin
     id 19
     name lradius
     direction 1 -4.4898e-011 7.31063e-027   
     length 3.35811   
     axis 180 -30 -90   XYZ
    dof rx
    limits (-10.0 170.0)
  end
  begin
     id 20
     name lwrist
     direction 1 -4.48938e-011 9.95048e-027   
     length 1.67905   
     axis -8.75986e-015 90 90   XYZ
    dof ry
    limits (-180.0 0.0)
 end
  begin
     id 21 
     name lhand
     direction 1 -4.4901e-011 1.9901e-026   
     length 0.622776   
     axis -1.26985e-014 90 90   XYZ
    dof rx rz
    limits (-90.0 90.0)
           (-45.0 45.0)
  end
  begin
     id 22 
     name lfingers
     direction 1 -4.48961e-011 3.98019e-026   
     length 0.502098   
     axis -2.5397e-014 90 90   XYZ
    dof rx
    limits (0.0 90.0)
  end
  begin
     id 23
     name lthumb
     direction 0.707107 -6.34933e-011 0.707107   
     length 0.720915   
     axis -90 45 2.85299e-015   XYZ
    dof rx rz
    limits (-45.0 45.0)
           (-45.0 45.0)
  end
  begin
     id 24 
     name rclavicle
     direction -0.990867 0.133739 -0.0172226   
     length 3.78845  
     axis 0 0 0   XYZ 
    dof ry rz
    limits (-10.0 20.0)
           (-20.0 0.0)
  end
  begin
     id 25 
     name rhumerus
     direction -1 -4.48972e-011 -1.99267e-027  
     length 4.96493   
     axis 180 30 90   XYZ
    dof rx ry rz
    limits (-90.0 60.0)
           (-90.0 90.0)
           (-90.0 90.0)
  end
  begin
     id 26 
     name rradius
     direction -1 -4.48969e-011 8.96093e-027   
     length 3.34929   
     axis 180 30 90   XYZ
    dof rx
    limits (-10.0 170.0)
  end
  begin
     id 27 
     name rwrist
     direction -1 -4.48953e-011 9.95048e-027   
     length 1.67464   
     axis -8.75986e-015 -90 -90   XYZ
    dof ry
    limits (-180.0 0.0)
  end
  begin
     id 28
     name rhand
     direction -1 -4.49001e-011 1.9901e-026   
     length 0.638041   
     axis -1.26985e-014 -90 -90   XYZ
    dof rx rz
    limits (-90.0 90.0)
           (-45.0 45.0)
  end
  begin
     id 29
     name rfingers
     direction -1 -4.48967e-011 3.98019e-026   
     length 0.514405   
     axis -2.5397e-014 -90 -90   XYZ
    dof rx
    limits (0.0 90.0)
  end
  begin
     id 30
     name rthumb
     direction -0.707107 -6.34904e-011 0.707107   
     length 0.738586   
     axis -90 -45 -2.85299e-015   XYZ
    dof rx rz
    limits (-45.0 45.0)
           (-45.0 45.0)
  end
:hierarchy
  begin
    root lhipjoint rhipjoint lowerback
    lhipjoint lfemur
    lfemur ltibia
    ltibia lfoot
    lfoot ltoes
    rhipjoint rfemur
    rfemur rtibia
    rtibia rfoot
    rfoot rtoes
    lowerback upperback
    upperback thorax
    thorax lowerneck lclavicle rclavicle
    lowerneck upperneck
    upperneck head
    lclavicle lhumerus
    lhumerus lradius
    lradius lwrist
    lwrist lhand lthumb
    lhand lfingers
    rclavicle rhumerus
    rhumerus rradius
    rradius rwrist
    rwrist rhand rthumb
    rhand rfingers
  end

#!OML:ASF E:\Mandelcareful walks\Project 1\Capture day 1\Session 1\Subject1.ASF
:FULLY-SPECIFIED
:DEGREES
41
root 4.18406 16.8687 -1.2991 -117.391 -86.7167 123.393
lowerback -9.9875 -0.987701 -4.22488
upperback -0.0991084 -0.821361 -0.537372
thorax 5.55816 -0.522134 1.69537
lowerneck -21.5364 14.2444 10.7044
upperneck 10.9402 19.9746 -20.3189
head 10.3695 7.75707 -5.3782
rclavicle 1.02079e-014 -5.46658e-015
rhumerus -41.5207 -40.3875 -52.9446
rradius 67.7985
rwrist -62.4604
rhand -26.8239 -32.9835
rfingers 7.12502
rthumb -0.250036 -62.9631
lclavicle 1.02079e-014 -5.46658e-015
lhumerus -36.3373 23.8879 79.581
lradius 26.3352
lwrist 0.0795453
lhand -22.1078 -14.9595
lfingers 7.12502
lthumb 4.30464 14.9767
rfemur -9.2395 -4.56189 15.4819
rtibia 23.1986
rfoot -20.1879 -13.9345
rtoes 10.9739
lfemur -9.41051 -4.20393 -22.0385
ltibia 27.625
lfoot -24.8249 14.0112
ltoes 9.64219
42
root 4.1819 16.8671 -1.29165 -117.212 -86.7185 123.146
lowerback -10.0821 -1.04682 -4.20895
upperback -0.0129425 -0.898205 -0.435739
thorax 5.70858 -0.563895 1.77949
lowerneck -21.5099 14.0179 10.4865
upperneck 10.7586 19.5663 -19.7822
head 10.1326 7.63588 -5.24801
rclavicle -7.17023e-015 -1.2275e-014
rhumerus -40.9946 -41.389 -52.1692
rradius 70.0032
rwrist -66.7947
rhand -27.3596 -33.2659
rfingers 7.12502
rthumb -0.7674 -63.2443
lclavicle -7.17023e-015 -1.2275e-014
lhumerus -36.336 24.4221 79.3123
lradius 26.3776
lwrist -0.0648653
lhand -22.607 -14.5134
lfingers 7.12502
lthumb 3.82259 15.432
rfemur -9.15076 -4.43694 15.4512
rtibia 23.2183
rfoot -20.2187 -14.0252
rtoes 11.0672
lfemur -9.32187 -4.2213 -22.0561
ltibia 27.6175
lfoot -24.8711 13.9113
ltoes 10.1114
43
root 4.17618 16.8654 -1.28541 -118.021 -86.6902 123.867
lowerback -10.1138 -1.07116 -4.15741
upperback 0.0416089 -0.936707 -0.354102
thorax 5.787 -0.584036 1.8294
lowerneck -21.5067 13.8377 10.3619
upperneck 10.6785 19.2222 -19.2497
head 9.96045 7.53944 -5.11895
rclavicle 3.20734e-015 1.98785e-016
rhumerus -40.6927 -42.2591 -51.3126
rradius 72.2463
rwrist -71.049
rhand -27.9152 -33.1146
rfingers 7.12502
rthumb -1.304 -63.0903
lclavicle 3.20734e-015 1.98785e-016
lhumerus -36.3057 25.0323 78.9663
lradius 26.1379
lwrist -0.0339446
lhand -22.8049 -15.2045
lfingers 7.12502
lthumb 3.63149 14.7443
rfemur -9.04508 -4.29243 15.4225
rtibia 23.274
rfoot -20.2384 -14.0988
rtoes 11.0759
lfemur -9.20163 -4.09279 -22.0713
ltibia 27.5921
lfoot -24.8819 13.7724
ltoes 10.5244
44
root 4.16897 16.8619 -1.27975 -118.21 -86.6777 124.017
lowerback -10.2036 -1.11284 -4.10235
upperback 0.0777798 -0.996223 -0.28767
thorax 5.87986 -0.614405 1.85751
lowerneck -21.6382 13.6944 10.2084
upperneck 10.7577 18.9473 -18.6469
head 9.86886 7.46236 -4.94216
rclavicle 7.85588e-015 5.11871e-015
rhumerus -40.3605 -42.8833 -50.5518
rradius 74.4443
rwrist -75.1186
rhand -28.0951 -32.6786
rfingers 7.12502
rthumb -1.47775 -62.6532
lclavicle 7.85588e-015 5.11871e-015
lhumerus -36.2552 25.6301 78.5908
lradius 25.8523
lwrist 0.113872
lhand -23.077 -16.1071
lfingers 7.12502
lthumb 3.3687 13.846
rfemur -9.01188 -4.20292 15.387
rtibia 23.3749
rfoot -20.3233 -14.1368
rtoes 11.2042
lfemur -9.09651 -3.77531 -22.0975
ltibia 27.5355
lfoot -24.8222 13.4936
ltoes 10.5003
45
root 4.16416 16.855 -1.27249 -118.278 -86.6689 124.07
lowerback -10.2714 -1.16839 -4.03786
upperback 0.066142 -1.07835 -0.224583
thorax 5.91103 -0.654079 1.87393
lowerneck -21.7942 13.516 10.0899
upperneck 10.961 18.6354 -18.0456
head 9.82631 7.36229 -4.77859
rclavicle -2.13694e-014 3.32964e-015
rhumerus -39.5294 -43.9774 -49.9089
rradius 76.0533
rwrist -78.0536
rhand -27.3284 -32.2488
rfingers 7.12502
rthumb -0.737297 -62.2273
lclavicle -2.13694e-014 3.32964e-015
lhumerus -36.4718 26.3221 78.009
lradius 26.0431
lwrist -0.856032
lhand -22.698 -15.4128
lfingers 7.12502
lthumb 3.73474 14.5342
rfemur -9.0384 -4.23138 15.3418
rtibia 23.4894
rfoot -20.4205 -14.0566
rtoes 11.5391
lfemur -8.96823 -3.69178 -22.138
ltibia 27.4656
lfoot -24.8915 13.2922
ltoes 10.9411
46
root 4.16633 16.8505 -1.26453 -118.557 -86.6566 124.361
lowerback -10.2607 -1.19324 -3.94791
upperback 0.0154693 -1.12588 -0.198585
thorax 5.85305 -0.673702 1.84394
lowerneck -21.9714 13.2731 9.91701
upperneck 11.2483 18.2108 -17.1932
head 9.76592 7.23247 -4.54303
rclavicle -2.1989e-014 -1.09332e-014
rhumerus -39.6977 -43.0477 -49.458
rradius 78.6651
rwrist -81.4974
rhand -27.0478 -30.8237
rfingers 7.12502
rthumb -0.466299 -60.8029
lclavicle -2.1989e-014 -1.09332e-014
lhumerus -36.6428 26.5725 77.6278
lradius 26.0426
lwrist -0.589262
lhand -23.1568 -15.9842
lfingers 7.12502
lthumb 3.29164 13.9702
rfemur -9.10446 -4.23839 15.3114
rtibia 23.5622
rfoot -20.4542 -14.2605
rtoes 11.2465
lfemur -8.91398 -3.61124 -22.1552
ltibia 27.4305
lfoot -24.9811 13.0672
ltoes 11.4158
47
root 4.16666 16.8539 -1.25536 -119.398 -86.629 125.251
lowerback -10.2598 -1.20238 -3.8024
upperback -0.0679576 -1.1588 -0.19321
thorax 5.7634 -0.683692 1.76351
lowerneck -21.9132 13.0115 9.71338
upperneck 11.298 17.7395 -16.3144
head 9.57674 7.1091 -4.31136
rclavicle 1.59105e-014 6.36111e-015
rhumerus -38.8857 -44.1243 -48.9349
rradius 79.9957
rwrist -82.4593
rhand -25.7189 -30.3399
rfingers 7.12502
rthumb 0.8172 -60.3181
lclavicle 1.59105e-014 6.36111e-015
lhumerus -36.8503 26.9107 77.1089
lradius 25.9808
lwrist -0.552696
lhand -23.1959 -16.0409
lfingers 7.12502
lthumb 3.25392 13.914
rfemur -9.19264 -4.30488 15.2895
rtibia 23.5752
rfoot -20.3434 -14.4724
rtoes 10.4959
lfemur -9.00805 -3.39301 -22.1613
ltibia 27.4453
lfoot -24.8971 12.9594
ltoes 11.0148
48
root 4.16141 16.8589 -1.24499 -120.665 -86.5847 126.569
lowerback -10.2389 -1.22235 -3.64129
upperback -0.207585 -1.21212 -0.162309
thorax 5.60453 -0.70243 1.69894
lowerneck -21.3673 12.7586 9.83359
upperneck 10.915 17.2683 -15.9937
head 9.25972 6.98516 -4.33553
rclavicle -3.45233e-015 -4.67144e-015
rhumerus -38.7407 -42.964 -48.492
rradius 81.7838
rwrist -83.9243
rhand -24.1486 -28.9659
rfingers 7.12502
rthumb 2.33385 -58.9329
lclavicle -3.45233e-015 -4.67144e-015
lhumerus -37.3048 27.1303 76.6084
lradius 26.2052
lwrist -0.248848
lhand -23.0629 -16.0467
lfingers 7.12502
lthumb 3.38235 13.9062
rfemur -9.22444 -4.44145 15.263
rtibia 23.5248
rfoot -20.254 -14.1155
rtoes 10.3096
lfemur -9.11898 -3.35425 -22.1874
ltibia 27.4906
lfoot -24.8479 13.0769
ltoes 10.6224
49
root 4.16093 16.8582 -1.2365 -121.148 -86.5654 127.071
lowerback -10.1328 -1.28651 -3.55657
upperback -0.352057 -1.32036 -0.0951128
thorax 5.39856 -0.750222 1.70879
lowerneck -21.0294 12.5384 9.94587
upperneck 10.7604 16.8551 -15.5844
head 9.05589 6.87177 -4.30743
rclavicle 1.39864e-014 -1.98785e-016
rhumerus -37.7101 -43.492 -48.2457
rradius 82.6067
rwrist -83.2535
rhand -21.5915 -28.6119
rfingers 7.12502
rthumb 4.80324 -58.5375
lclavicle 1.39864e-014 -1.98785e-016
lhumerus -37.7799 27.4302 76.1061
lradius 26.4096
lwrist 0.0261075
lhand -23.1773 -16.276
lfingers 7.12502
lthumb 3.2719 13.6787
rfemur -9.17589 -4.43605 15.2497
rtibia 23.4376
rfoot -20.2758 -13.8811
rtoes 10.2818
lfemur -9.14318 -3.39725 -22.2112
ltibia 27.5428
lfoot -24.9422 13.0439
ltoes 10.8416
50
root 4.15903 16.859 -1.23082 -121.363 -86.5504 127.24
lowerback -10.0763 -1.35549 -3.50949
upperback -0.391379 -1.4236 -0.0449832
thorax 5.33151 -0.799139 1.72092
lowerneck -21.1644 12.3662 9.84637
upperneck 10.9712 16.516 -14.7955
head 9.00752 6.78096 -4.08592
rclavicle 5.19636e-015 4.37326e-015
rhumerus -36.804 -42.8756 -48.1079
rradius 83.7487
rwrist -82.7909
rhand -19.0105 -28.0173
rfingers 7.12502
rthumb 7.29497 -57.8715
lclavicle 5.19636e-015 4.37326e-015
lhumerus -37.9993 27.8977 75.5546
lradius 26.3333
lwrist 0.114892
lhand -23.1926 -16.4606
lfingers 7.12502
lthumb 3.25713 13.4942
rfemur -9.05356 -4.32998 15.2294
rtibia 23.3614
rfoot -20.2702 -13.9843
rtoes 10.1325
lfemur -9.07481 -3.45463 -22.2365
ltibia 27.5798
lfoot -25.0426 12.9988
ltoes 11.1693
51
root 4.15207 16.8608 -1.22633 -121.951 -86.5171 127.778
lowerback -10.0992 -1.39321 -3.46353
upperback -0.399913 -1.47998 -0.0143654
thorax 5.3383 -0.826143 1.71838
lowerneck -21.2243 12.163 9.69971
upperneck 11.0912 16.1429 -14.0305
head 8.91493 6.67755 -3.87461
rclavicle 1.79776e-014 9.54166e-015
rhumerus -36.1869 -41.5369 -47.8683
rradius 84.8106
rwrist -82.4265
rhand -15.8627 -26.9691
rfingers 7.12502
rthumb 10.3326 -56.6952
lclavicle 1.79776e-014 9.54166e-015
lhumerus -38.1585 28.2204 75.0605
lradius 26.3383
lwrist 0.448166
lhand -23.0658 -16.1739
lfingers 7.12502
lthumb 3.37954 13.7791
rfemur -8.94713 -4.27477 15.194
rtibia 23.3209
rfoot -20.2336 -13.9981
rtoes 10.0789
lfemur -9.0329 -3.52947 -22.2692
ltibia 27.5789
lfoot -25.0126 13.1699
ltoes 11.231
52
root 4.14883 16.862 -1.22103 -122.526 -86.4893 128.385
lowerback -10.1395 -1.4439 -3.41886
upperback -0.467246 -1.55633 0.0427399
thorax 5.29485 -0.862356 1.74166
lowerneck -21.1695 11.9222 9.38159
upperneck 11.1739 15.7493 -13.1533
head 8.76785 6.57516 -3.6084
rclavicle 3.50467e-014 5.56597e-015
rhumerus -34.5818 -42.2219 -47.909
rradius 85.0519
rwrist -80.4281
rhand -11.7804 -27.2421
rfingers 7.12502
rthumb 14.2686 -56.7319
lclavicle 3.50467e-014 5.56597e-015
lhumerus -38.5094 28.4912 74.5814
lradius 26.5885
lwrist 0.940323
lhand -23.0648 -15.8886
lfingers 7.12502
lthumb 3.38053 14.0643
rfemur -8.95937 -4.16185 15.1753
rtibia 23.2851
rfoot -20.2446 -14.0905
rtoes 9.76301
lfemur -9.08893 -3.51513 -22.2847
ltibia 27.5627
lfoot -24.9204 13.226
ltoes 11.3132
53
root 4.14687 16.8679 -1.2148 -122.866 -86.4742 128.775
lowerback -10.2629 -1.48993 -3.32534
upperback -0.504159 -1.62625 0.0622319
thorax 5.32709 -0.895129 1.69682
lowerneck -21.1663 11.6718 8.98599
upperneck 11.2919 15.3375 -12.1232
head 8.62486 6.47268 -3.28081
rclavicle 6.19183e-015 -1.98785e-016
rhumerus -33.4366 -42.2521 -47.8508
rradius 85.4631
rwrist -79.2651
rhand -7.8412 -27.1707
rfingers 7.12502
rthumb 18.0616 -56.3521
lclavicle 6.19183e-015 -1.98785e-016
lhumerus -38.8783 28.901 73.8942
lradius 26.8058
lwrist 0.912616
lhand -23.3851 -15.9753
lfingers 7.12502
lthumb 3.07117 13.9823
rfemur -9.0033 -3.98595 15.1632
rtibia 23.223
rfoot -20.2257 -14.3247
rtoes 9.52128
lfemur -9.16456 -3.42626 -22.293
ltibia 27.5713
lfoot -24.8871 13.1257
ltoes 11.2741
54
root 4.14412 16.8706 -1.20724 -123.648 -86.4394 129.55
lowerback -10.4966 -1.48423 -3.18222
upperback -0.423059 -1.6227 0.026293
thorax 5.53819 -0.892675 1.57298
lowerneck -20.9667 11.3649 8.8894
upperneck 11.062 14.8069 -11.462
head 8.38615 6.30816 -3.15041
rclavicle -8.79001e-015 7.35503e-015
rhumerus -32.6736 -41.945 -47.6967
rradius 86.0735
rwrist -78.7812
rhand -3.26571 -26.9424
rfingers 7.12502
rthumb 22.4589 -55.6565
lclavicle -8.79001e-015 7.35503e-015
lhumerus -38.9469 29.4356 73.135
lradius 26.8304
lwrist 0.81946
lhand -23.2432 -15.6699
lfingers 7.12502
lthumb 3.20823 14.2857
rfemur -8.98657 -4.06806 15.1259
rtibia 23.1768
rfoot -20.114 -14.2727
rtoes 9.72865
lfemur -9.16575 -3.37777 -22.326
ltibia 27.5905
lfoot -24.9211 13.1238
ltoes 10.9884
